v 0.7280874848365784 0.20588448643684387 0.06368900090456009
v 0.7280874252319336 0.20588448643684387 0.055423248559236526
v 0.7377249002456665 0.20588448643684387 0.05542340874671936
v 0.7377249598503113 0.20588448643684387 0.06368910521268845
v 0.25076156854629517 0.20588448643684387 0.06368910521268845
v 0.25076162815093994 0.20588448643684387 0.05542340874671936
v 0.26039913296699524 0.20588448643684387 0.055423248559236526
v 0.26039910316467285 0.20588448643684387 0.06368900090456009
v 0.7215154767036438 0.20588448643684387 0.06368883699178696
v 0.7215154767036438 0.20588448643684387 0.05542309209704399
v 0.7280874252319336 0.20588448643684387 0.9319581985473633
v 0.7280874848365784 0.20588448643684387 0.9236924648284912
v 0.7377249598503113 0.20588448643684387 0.9236923456192017
v 0.7377249002456665 0.20588448643684387 0.931958019733429
v 0.7280876040458679 0.20588448643684387 0.07019338011741638
v 0.7377250790596008 0.20588448643684387 0.07019345462322235
v 0.25076162815093994 0.20588448643684387 0.931958019733429
v 0.25076156854629517 0.20588448643684387 0.9236923456192017
v 0.26039910316467285 0.20588448643684387 0.9236924648284912
v 0.26039913296699524 0.20588448643684387 0.9319581985473633
v 0.2507615089416504 0.20588448643684387 0.07019338011741638
v 0.2603990137577057 0.20588448643684387 0.07019338011741638
v 0.7215154767036438 0.20588448643684387 0.9319583773612976
v 0.7215154767036438 0.20588448643684387 0.9236926436424255
v 0.7215155959129333 0.20588448643684387 0.07019326835870743
v 0.2669711709022522 0.20588448643684387 0.05542309209704399
v 0.26697108149528503 0.20588448643684387 0.06368883699178696
v 0.26697108149528503 0.20588448643684387 0.9236926436424255
v 0.2669711709022522 0.20588448643684387 0.9319583773612976
v 0.26697099208831787 0.20588448643684387 0.07019326835870743
v 0.7280876040458679 0.20588448643684387 0.9171881079673767
v 0.7377250790596008 0.20588448643684387 0.9171879291534424
v 0.2507615089416504 0.20588448643684387 0.9171878695487976
v 0.2603990137577057 0.20588448643684387 0.9171881079673767
v 0.7215155959129333 0.20588448643684387 0.917188286781311
v 0.26697099208831787 0.20588448643684387 0.917188286781311
v 0.7280874848365784 0.20253659784793854 0.06368900090456009
v 0.7377249598503113 0.20253659784793854 0.06368910521268845
v 0.7377249002456665 0.20253659784793854 0.05542340874671936
v 0.7280874252319336 0.20253659784793854 0.055423248559236526
v 0.25076156854629517 0.20253659784793854 0.06368910521268845
v 0.26039910316467285 0.20253659784793854 0.06368900090456009
v 0.26039913296699524 0.20253659784793854 0.055423248559236526
v 0.25076162815093994 0.20253659784793854 0.05542340874671936
v 0.7215154767036438 0.20253659784793854 0.06368883699178696
v 0.7215154767036438 0.20253659784793854 0.05542309209704399
v 0.7280874252319336 0.20253659784793854 0.9319581985473633
v 0.7377249002456665 0.20253659784793854 0.931958019733429
v 0.7377249598503113 0.20253659784793854 0.9236923456192017
v 0.7280874848365784 0.20253659784793854 0.9236924648284912
v 0.7280876040458679 0.20253659784793854 0.07019338011741638
v 0.7377250790596008 0.20253659784793854 0.07019345462322235
v 0.25076162815093994 0.20253659784793854 0.931958019733429
v 0.26039913296699524 0.20253659784793854 0.9319581985473633
v 0.26039910316467285 0.20253659784793854 0.9236924648284912
v 0.25076156854629517 0.20253659784793854 0.9236923456192017
v 0.2507615089416504 0.20253659784793854 0.07019338011741638
v 0.2603990137577057 0.20253659784793854 0.07019338011741638
v 0.7215154767036438 0.20253659784793854 0.9319583773612976
v 0.7215154767036438 0.20253659784793854 0.9236926436424255
v 0.7215155959129333 0.20253659784793854 0.07019326835870743
v 0.26697108149528503 0.20253659784793854 0.06368883699178696
v 0.2669711709022522 0.20253659784793854 0.05542309209704399
v 0.2669711709022522 0.20253659784793854 0.9319583773612976
v 0.26697108149528503 0.20253659784793854 0.9236926436424255
v 0.26697099208831787 0.20253659784793854 0.07019326835870743
v 0.7377250790596008 0.20253659784793854 0.9171879291534424
v 0.7280876040458679 0.20253659784793854 0.9171881079673767
v 0.2603990137577057 0.20253659784793854 0.9171881079673767
v 0.2507615089416504 0.20253659784793854 0.9171878695487976
v 0.7215155959129333 0.20253659784793854 0.917188286781311
v 0.26697099208831787 0.20253659784793854 0.917188286781311
v 0.7280874848365784 0.20271696150302887 0.9319583177566528
v 0.7377249598503113 0.20271696150302887 0.9319581389427185
v 0.7377249002456665 0.20253659784793854 0.931958019733429
v 0.7280874252319336 0.20253659784793854 0.9319581985473633
v 0.2669711112976074 0.20271696150302887 0.055422984063625336
v 0.26039910316467285 0.20271696150302887 0.05542314425110817
v 0.26039913296699524 0.20253659784793854 0.055423248559236526
v 0.2669711709022522 0.20253659784793854 0.05542309209704399
v 0.2507615387439728 0.20271696150302887 0.9236924052238464
v 0.25076156854629517 0.20271696150302887 0.9319581389427185
v 0.25076162815093994 0.20253659784793854 0.931958019733429
v 0.25076156854629517 0.20253659784793854 0.9236923456192017
v 0.737725019454956 0.20271696150302887 0.9236924052238464
v 0.7377251386642456 0.20271696150302887 0.9171880483627319
v 0.7377250790596008 0.20253659784793854 0.9171879291534424
v 0.7377249598503113 0.20253659784793854 0.9236923456192017
v 0.26039910316467285 0.20271696150302887 0.9319583177566528
v 0.2669711112976074 0.20271696150302887 0.9319584965705872
v 0.2669711709022522 0.20253659784793854 0.9319583773612976
v 0.26039913296699524 0.20253659784793854 0.9319581985473633
v 0.25076156854629517 0.20271696150302887 0.9319581389427185
v 0.25076162815093994 0.20253659784793854 0.931958019733429
v 0.2507615387439728 0.20271696150302887 0.06368900090456009
v 0.2507614493370056 0.20271696150302887 0.07019326835870743
v 0.2507615089416504 0.20253659784793854 0.07019338011741638
v 0.25076156854629517 0.20253659784793854 0.06368910521268845
v 0.7377251386642456 0.20271696150302887 0.070193350315094
v 0.737725019454956 0.20271696150302887 0.06368900090456009
v 0.7377249598503113 0.20253659784793854 0.06368910521268845
v 0.7377250790596008 0.20253659784793854 0.07019345462322235
v 0.7280874848365784 0.20271696150302887 0.05542314425110817
v 0.7215154767036438 0.20271696150302887 0.055422984063625336
v 0.7215154767036438 0.20253659784793854 0.05542309209704399
v 0.7280874252319336 0.20253659784793854 0.055423248559236526
v 0.2507614493370056 0.20271696150302887 0.9171879291534424
v 0.2507615089416504 0.20253659784793854 0.9171878695487976
v 0.7215154767036438 0.20271696150302887 0.9319584965705872
v 0.7215154767036438 0.20253659784793854 0.9319583773612976
v 0.7377249598503113 0.20271696150302887 0.055423304438591
v 0.7377249002456665 0.20253659784793854 0.05542340874671936
v 0.25076156854629517 0.20271696150302887 0.055423304438591
v 0.25076162815093994 0.20253659784793854 0.05542340874671936
v 0.7377249598503113 0.20271696150302887 0.9319581389427185
v 0.7377249002456665 0.20253659784793854 0.931958019733429
v 0.25076156854629517 0.20271696150302887 0.055423304438591
v 0.25076162815093994 0.20253659784793854 0.05542340874671936
v 0.7377249598503113 0.20271696150302887 0.055423304438591
v 0.7377249002456665 0.20253659784793854 0.05542340874671936
v 0.7280874252319336 0.20588448643684387 0.9319581985473633
v 0.7377249002456665 0.20588448643684387 0.931958019733429
v 0.7377249598503113 0.20570410788059235 0.9319581389427185
v 0.7280874848365784 0.20570410788059235 0.9319583177566528
v 0.7280875444412231 0.20321480929851532 0.9319583773612976
v 0.737725019454956 0.20321480929851532 0.9319581985473633
v 0.2669711709022522 0.20588448643684387 0.05542309209704399
v 0.26039913296699524 0.20588448643684387 0.055423248559236526
v 0.26039910316467285 0.20570410788059235 0.05542314425110817
v 0.2669711112976074 0.20570410788059235 0.055422984063625336
v 0.26697108149528503 0.20321480929851532 0.05542293190956116
v 0.26039907336235046 0.20321480929851532 0.05542309209704399
v 0.25076156854629517 0.20588448643684387 0.9236923456192017
v 0.25076162815093994 0.20588448643684387 0.931958019733429
v 0.25076156854629517 0.20570410788059235 0.9319581389427185
v 0.2507615387439728 0.20570410788059235 0.9236924052238464
v 0.2507615089416504 0.20321480929851532 0.9236924648284912
v 0.25076156854629517 0.20321480929851532 0.9319581985473633
v 0.7377249598503113 0.20588448643684387 0.9236923456192017
v 0.7377250790596008 0.20588448643684387 0.9171879291534424
v 0.7377251386642456 0.20570410788059235 0.9171880483627319
v 0.737725019454956 0.20570410788059235 0.9236924052238464
v 0.7377250790596008 0.20321480929851532 0.9236924648284912
v 0.7377251386642456 0.20321480929851532 0.9171881079673767
v 0.26039913296699524 0.20588448643684387 0.9319581985473633
v 0.2669711709022522 0.20588448643684387 0.9319583773612976
v 0.2669711112976074 0.20570410788059235 0.9319584965705872
v 0.26039910316467285 0.20570410788059235 0.9319583177566528
v 0.26039907336235046 0.20321480929851532 0.9319583773612976
v 0.26697108149528503 0.20321480929851532 0.9319585561752319
v 0.25076162815093994 0.20588448643684387 0.931958019733429
v 0.25076156854629517 0.20570410788059235 0.9319581389427185
v 0.25076156854629517 0.20321480929851532 0.9319581985473633
v 0.25076156854629517 0.20588448643684387 0.06368910521268845
v 0.2507615089416504 0.20588448643684387 0.07019338011741638
v 0.2507614493370056 0.20570410788059235 0.07019326835870743
v 0.2507615387439728 0.20570410788059235 0.06368900090456009
v 0.2507615089416504 0.20321480929851532 0.06368894129991531
v 0.2507614195346832 0.20321480929851532 0.07019321620464325
v 0.7377250790596008 0.20588448643684387 0.07019345462322235
v 0.7377249598503113 0.20588448643684387 0.06368910521268845
v 0.737725019454956 0.20570410788059235 0.06368900090456009
v 0.7377251386642456 0.20570410788059235 0.070193350315094
v 0.7377251386642456 0.20321480929851532 0.07019329816102982
v 0.7377250790596008 0.20321480929851532 0.06368894129991531
v 0.7280874252319336 0.20588448643684387 0.055423248559236526
v 0.7215154767036438 0.20588448643684387 0.05542309209704399
v 0.7215154767036438 0.20570410788059235 0.055422984063625336
v 0.7280874848365784 0.20570410788059235 0.05542314425110817
v 0.7280875444412231 0.20321480929851532 0.05542309209704399
v 0.7215155363082886 0.20321480929851532 0.05542293190956116
v 0.2507615089416504 0.20588448643684387 0.9171878695487976
v 0.2507614493370056 0.20570410788059235 0.9171879291534424
v 0.2507614195346832 0.20321480929851532 0.9171879887580872
v 0.7215154767036438 0.20588448643684387 0.9319583773612976
v 0.7215154767036438 0.20570410788059235 0.9319584965705872
v 0.7215155363082886 0.20321480929851532 0.9319585561752319
v 0.7377249002456665 0.20588448643684387 0.05542340874671936
v 0.7377249598503113 0.20570410788059235 0.055423304438591
v 0.737725019454956 0.20321480929851532 0.055423248559236526
v 0.25076162815093994 0.20588448643684387 0.05542340874671936
v 0.25076156854629517 0.20570410788059235 0.055423304438591
v 0.25076156854629517 0.20321480929851532 0.055423248559236526
v 0.7377249002456665 0.20588448643684387 0.931958019733429
v 0.7377249598503113 0.20570410788059235 0.9319581389427185
v 0.737725019454956 0.20321480929851532 0.9319581985473633
v 0.25076162815093994 0.20588448643684387 0.05542340874671936
v 0.25076156854629517 0.20570410788059235 0.055423304438591
v 0.25076156854629517 0.20321480929851532 0.055423248559236526
v 0.7377249002456665 0.20588448643684387 0.05542340874671936
v 0.7377249598503113 0.20570410788059235 0.055423304438591
v 0.737725019454956 0.20321480929851532 0.055423248559236526
v 0.737725019454956 0.2052062600851059 0.9319581985473633
v 0.7280875444412231 0.2052062600851059 0.9319583773612976
v 0.26039907336235046 0.2052062600851059 0.05542309209704399
v 0.26697108149528503 0.2052062600851059 0.05542293190956116
v 0.25076156854629517 0.2052062600851059 0.9319581985473633
v 0.2507615089416504 0.2052062600851059 0.9236924648284912
v 0.7377251386642456 0.2052062600851059 0.9171881079673767
v 0.7377250790596008 0.2052062600851059 0.9236924648284912
v 0.26697108149528503 0.2052062600851059 0.9319585561752319
v 0.26039907336235046 0.2052062600851059 0.9319583773612976
v 0.25076156854629517 0.2052062600851059 0.9319581985473633
v 0.2507614195346832 0.2052062600851059 0.07019321620464325
v 0.2507615089416504 0.2052062600851059 0.06368894129991531
v 0.7377250790596008 0.2052062600851059 0.06368894129991531
v 0.7377251386642456 0.2052062600851059 0.07019329816102982
v 0.7215155363082886 0.2052062600851059 0.05542293190956116
v 0.7280875444412231 0.2052062600851059 0.05542309209704399
v 0.2507614195346832 0.2052062600851059 0.9171879887580872
v 0.7215155363082886 0.2052062600851059 0.9319585561752319
v 0.737725019454956 0.2052062600851059 0.055423248559236526
v 0.25076156854629517 0.2052062600851059 0.055423248559236526
v 0.737725019454956 0.2052062600851059 0.9319581985473633
v 0.25076156854629517 0.2052062600851059 0.055423248559236526
v 0.737725019454956 0.2052062600851059 0.055423248559236526
vt 0.5142601728439331 -1.299767017364502
vt 0.5142601728439331 -1.3355190753936768
vt 0.48448508977890015 -1.3355183601379395
vt 0.4844849109649658 -1.2997667789459229
vt 1.988968849182129 -1.299767017364502
vt 1.988968849182129 -1.3355190753936768
vt 1.959193468093872 -1.335519790649414
vt 1.959193468093872 -1.2997674942016602
vt 0.5345644950866699 -1.2997674942016602
vt 0.5345644950866699 -1.3355202674865723
vt 0.5142605900764465 2.4557838439941406
vt 0.5142602920532227 2.420032024383545
vt 0.4844852089881897 2.4200310707092285
vt 0.484485387802124 2.4557831287384033
vt 0.5142598152160645 -1.2716336250305176
vt 0.4844847321510315 -1.2716329097747803
vt 1.988968849182129 2.455782413482666
vt 1.9889692068099976 2.4200305938720703
vt 1.9591938257217407 2.4200310707092285
vt 1.9591938257217407 2.4557831287384033
vt 1.9889692068099976 -1.2716338634490967
vt 1.9591938257217407 -1.2716338634490967
vt 0.5345648527145386 2.455784559249878
vt 0.534564733505249 2.420032501220703
vt 0.5345641374588013 -1.2716338634490967
vt 1.9388891458511353 -1.3355202674865723
vt 1.9388891458511353 -1.2997684478759766
vt 1.9388898611068726 2.420032024383545
vt 1.9388891458511353 2.4557838439941406
vt 1.9388898611068726 -1.2716343402862549
vt 0.5142601728439331 2.3918979167938232
vt 0.4844849109649658 2.391897439956665
vt 1.9889692068099976 2.3918962478637695
vt 1.9591938257217407 2.391897678375244
vt 0.5345644950866699 2.3918991088867188
vt 1.9388898611068726 2.3918986320495605
vt -0.9902241826057434 2.420032024383545
vt -1.0199995040893555 2.4200310707092285
vt -1.0199992656707764 2.4557831287384033
vt -0.9902241826057434 2.4557838439941406
vt 0.48448437452316284 2.4200305938720703
vt 0.45470935106277466 2.4200310707092285
vt 0.454708993434906 2.4557831287384033
vt 0.48448437452316284 2.455782413482666
vt -0.9699198603630066 2.420032501220703
vt -0.9699198603630066 2.455784559249878
vt -0.9902245402336121 -1.3355190753936768
vt -1.0199995040893555 -1.3355183601379395
vt -1.0199997425079346 -1.2997665405273438
vt -0.9902245402336121 -1.299767017364502
vt -0.9902245402336121 2.3918979167938232
vt -1.0199997425079346 2.3918979167938232
vt 0.48448407649993896 -1.3355190753936768
vt 0.4547087550163269 -1.335519790649414
vt 0.4547088146209717 -1.2997674942016602
vt 0.48448413610458374 -1.299767017364502
vt 0.4844847321510315 2.391897678375244
vt 0.4547094404697418 2.391897678375244
vt -0.9699198603630066 -1.3355202674865723
vt -0.9699202179908752 -1.2997679710388184
vt -0.9699202179908752 2.3918986320495605
vt 0.4344049096107483 2.420032024383545
vt 0.43440476059913635 2.4557838439941406
vt 0.4344042241573334 -1.3355202674865723
vt 0.434404581785202 -1.2997684478759766
vt 0.4344050884246826 2.3918979167938232
vt -1.0199997425079346 -1.2716329097747803
vt -0.9902248978614807 -1.2716336250305176
vt 0.45470917224884033 -1.2716338634490967
vt 0.48448437452316284 -1.2716329097747803
vt -0.9699205756187439 -1.2716343402862549
vt 0.43440479040145874 -1.271634817123413
vt 2.010213851928711 0.39119189977645874
vt 2.010214328765869 0.3495067358016968
vt 2.0096566677093506 0.3495069742202759
vt 2.0096566677093506 0.3911922574043274
vt -0.9699202179908752 -1.3363003730773926
vt -0.9902245402336121 -1.3363003730773926
vt -0.9902245402336121 -1.3355202674865723
vt -0.9699198603630066 -1.3355202674865723
vt 1.9895271062850952 -1.299767017364502
vt 1.9895271062850952 -1.3355188369750977
vt 1.9889699220657349 -1.3355183601379395
vt 1.9889699220657349 -1.2997665405273438
vt 1.9998705387115479 2.420032024383545
vt 1.9998703002929688 2.3918983936309814
vt 1.9993131160736084 2.3918979167938232
vt 1.9993131160736084 2.420032024383545
vt 2.010213851928711 2.4140989780426025
vt 2.010213851928711 2.3856730461120605
vt 2.0096566677093506 2.3856725692749023
vt 2.0096566677093506 2.4140985012054443
vt 2.010213851928711 2.455784559249878
vt 2.0096566677093506 2.4557840824127197
vt 1.989526391029358 2.420032501220703
vt 1.989526391029358 2.3918991088867188
vt 1.9889692068099976 2.3918988704681396
vt 1.9889692068099976 2.420032024383545
vt 1.9998703002929688 -1.2716336250305176
vt 1.9998705387115479 -1.299767017364502
vt 1.9993131160736084 -1.2997665405273438
vt 1.9993131160736084 -1.2716329097747803
vt 0.454708993434906 -1.3363003730773926
vt 0.43440476059913635 -1.3363003730773926
vt 0.4344044029712677 -1.3355202674865723
vt 0.4547087550163269 -1.3355202674865723
vt 1.9895271062850952 -1.2716329097747803
vt 1.9889699220657349 -1.271632432937622
vt 2.010214328765869 0.41961807012557983
vt 2.0096566677093506 0.4196183681488037
vt 1.9998705387115479 -1.3355188369750977
vt 1.9993131160736084 -1.3355183601379395
vt -1.0199997425079346 -1.3363003730773926
vt -1.0199997425079346 -1.3355202674865723
vt 1.9998705387115479 2.4557840824127197
vt 1.9993131160736084 2.4557838439941406
vt 1.989526391029358 2.4557840824127197
vt 1.9889692068099976 2.4557838439941406
vt 0.48448413610458374 -1.3363003730773926
vt 0.48448407649993896 -1.3355202674865723
vt 2.0199999809265137 0.3911922574043274
vt 2.0199999809265137 0.3495069742202759
vt 2.019442558288574 0.3495067358016968
vt 2.019442558288574 0.39119189977645874
vt 2.011751890182495 0.39119189977645874
vt 2.011751890182495 0.3495064973831177
vt -0.9699198603630066 -1.3500010967254639
vt -0.9902245402336121 -1.3500010967254639
vt -0.9902245402336121 -1.3492209911346436
vt -0.9699202179908752 -1.3492209911346436
vt -0.9699202179908752 -1.338453769683838
vt -0.9902248978614807 -1.338453769683838
vt 1.9993131160736084 -1.2997665405273438
vt 1.9993131160736084 -1.3355183601379395
vt 1.998755931854248 -1.3355188369750977
vt 1.998755931854248 -1.299767017364502
vt 1.9910647869110107 -1.299767017364502
vt 1.9910647869110107 -1.3355190753936768
vt 2.0096566677093506 2.420032024383545
vt 2.0096564292907715 2.3918979167938232
vt 2.009099245071411 2.3918983936309814
vt 2.009099245071411 2.420032024383545
vt 2.001408815383911 2.420032501220703
vt 2.001408815383911 2.3918988704681396
vt 2.0199999809265137 2.4140985012054443
vt 2.0199999809265137 2.3856725692749023
vt 2.019442558288574 2.3856730461120605
vt 2.019442558288574 2.4140989780426025
vt 2.011751890182495 2.4140989780426025
vt 2.011751890182495 2.3856730461120605
vt 2.0199999809265137 2.4557840824127197
vt 2.019442558288574 2.455784559249878
vt 2.011751890182495 2.455784559249878
vt 1.9993131160736084 2.420032024383545
vt 1.9993131160736084 2.3918988704681396
vt 1.9987552165985107 2.3918991088867188
vt 1.9987552165985107 2.420032501220703
vt 1.9910647869110107 2.420032501220703
vt 1.9910647869110107 2.391899347305298
vt 2.0096564292907715 -1.2716329097747803
vt 2.0096566677093506 -1.2997665405273438
vt 2.009099245071411 -1.299767017364502
vt 2.009099245071411 -1.2716336250305176
vt 2.001408815383911 -1.2716338634490967
vt 2.001408815383911 -1.299767017364502
vt 0.4547087550163269 -1.3500010967254639
vt 0.4344044029712677 -1.3500010967254639
vt 0.43440476059913635 -1.3492209911346436
vt 0.454708993434906 -1.3492209911346436
vt 0.454708993434906 -1.338453769683838
vt 0.43440476059913635 -1.338453769683838
vt 1.9993131160736084 -1.271632432937622
vt 1.998755931854248 -1.2716329097747803
vt 1.9910647869110107 -1.2716329097747803
vt 2.0199999809265137 0.4196183681488037
vt 2.019442558288574 0.41961807012557983
vt 2.011751890182495 0.4196179509162903
vt 2.0096564292907715 -1.3355183601379395
vt 2.009099245071411 -1.3355188369750977
vt 2.001408815383911 -1.3355190753936768
vt -1.0199997425079346 -1.3500010967254639
vt -1.0199997425079346 -1.3492209911346436
vt -1.0199997425079346 -1.338453769683838
vt 2.0096564292907715 2.4557838439941406
vt 2.009099245071411 2.4557840824127197
vt 2.001408815383911 2.455784559249878
vt 1.9993131160736084 2.4557838439941406
vt 1.9987552165985107 2.4557840824127197
vt 1.9910647869110107 2.455784559249878
vt 0.48448407649993896 -1.3500010967254639
vt 0.48448413610458374 -1.3492209911346436
vt 0.48448437452316284 -1.338453769683838
vt 2.017904758453369 0.3495064973831177
vt 2.017904758453369 0.39119189977645874
vt -0.9902248978614807 -1.3470675945281982
vt -0.9699202179908752 -1.3470675945281982
vt 1.9972175359725952 -1.3355190753936768
vt 1.9972175359725952 -1.299767017364502
vt 2.007561683654785 2.3918988704681396
vt 2.007561206817627 2.420032501220703
vt 2.017904758453369 2.3856730461120605
vt 2.017904758453369 2.4140989780426025
vt 2.017904758453369 2.455784559249878
vt 1.9972175359725952 2.391899347305298
vt 1.9972175359725952 2.420032501220703
vt 2.007561206817627 -1.299767017364502
vt 2.007561683654785 -1.2716338634490967
vt 0.43440476059913635 -1.3470675945281982
vt 0.454708993434906 -1.3470675945281982
vt 1.9972175359725952 -1.2716329097747803
vt 2.017904758453369 0.4196179509162903
vt 2.007561683654785 -1.3355190753936768
vt -1.0199997425079346 -1.3470675945281982
vt 2.007561683654785 2.455784559249878
vt 1.9972175359725952 2.455784559249878
vt 0.48448437452316284 -1.3470675945281982
vn 0.0 -1.0 0.0
vn 0.0 -0.7072898745536804 0.7069236636161804
vn -0.5773298740386963 -0.5775130391120911 0.5772078037261963
vn -0.7070000171661377 -0.7072135806083679 0.0
vn 0.7070000171661377 -0.7072135806083679 0.0
vn 0.5772688388824463 -0.5776045918464661 0.5771773457527161
vn 0.0 -0.7073355913162231 0.7068778276443481
vn 0.0 -1.0 0.0
vn 0.0 -1.0 0.0
vn 0.0 -0.7073202729225159 0.7068930864334106
vn 0.0 -0.7072898745536804 -0.7069236636161804
vn 0.0 -1.0 0.0
vn -0.7070000171661377 -0.7072135806083679 0.0
vn -0.5773298740386963 -0.5775130391120911 -0.5772078037261963
vn 0.0 -1.0 0.0
vn -0.7070000171661377 -0.7072135806083679 0.0
vn 0.5772688388824463 -0.5776045918464661 -0.5771773457527161
vn 0.7070000171661377 -0.7072135806083679 0.0
vn 0.0 -1.0 0.0
vn 0.0 -0.7073355913162231 -0.7068778276443481
vn 0.7070000171661377 -0.7072135806083679 0.0
vn 0.0 -1.0 0.0
vn 0.0 -0.7073202729225159 -0.7068930864334106
vn 0.0 -1.0 0.0
vn 0.0 -1.0 0.0
vn 0.0 -0.7073202729225159 0.7068930864334106
vn 0.0 -1.0 0.0
vn 0.0 -1.0 0.0
vn 0.0 -0.7073202729225159 -0.7068930864334106
vn 0.0 -1.0 0.0
vn 0.0 -1.0 0.0
vn -0.7070000171661377 -0.7072135806083679 0.0
vn 0.7070000171661377 -0.7072135806083679 0.0
vn 0.0 -1.0 0.0
vn 0.0 -1.0 0.0
vn 0.0 -1.0 0.0
vn 0.0 1.0 -0.0
vn -0.7070000171661377 0.7072135806083679 0.0
vn -0.5773298740386963 0.5775130391120911 0.5772078037261963
vn 0.0 0.7072898745536804 0.7069236636161804
vn 0.7070000171661377 0.7072135806083679 -0.0
vn 0.0 1.0 -0.0
vn 0.0 0.7073355913162231 0.7068778276443481
vn 0.5772688388824463 0.5776045918464661 0.5771773457527161
vn 0.0 1.0 -0.0
vn 0.0 0.7073202729225159 0.7068930864334106
vn 0.0 0.7072898745536804 -0.7069236636161804
vn -0.5773298740386963 0.5775130391120911 -0.5772078037261963
vn -0.7070000171661377 0.7072135806083679 0.0
vn 0.0 1.0 -0.0
vn 0.0 1.0 -0.0
vn -0.7070000171661377 0.7072135806083679 0.0
vn 0.5772688388824463 0.5776045918464661 -0.5771773457527161
vn 0.0 0.7073355913162231 -0.7068778276443481
vn 0.0 1.0 -0.0
vn 0.7070000171661377 0.7072135806083679 -0.0
vn 0.7070000171661377 0.7072135806083679 -0.0
vn 0.0 1.0 -0.0
vn 0.0 0.7073202729225159 -0.7068930864334106
vn 0.0 1.0 -0.0
vn 0.0 1.0 -0.0
vn 0.0 1.0 -0.0
vn 0.0 0.7073202729225159 0.7068930864334106
vn 0.0 0.7073202729225159 -0.7068930864334106
vn 0.0 1.0 -0.0
vn 0.0 1.0 -0.0
vn -0.7070000171661377 0.7072135806083679 0.0
vn 0.0 1.0 -0.0
vn 0.0 1.0 -0.0
vn 0.7070000171661377 0.7072135806083679 -0.0
vn 0.0 1.0 -0.0
vn 0.0 1.0 -0.0
vn 0.0 0.00030518503626808524 -0.9999998807907104
vn -0.7070762515068054 0.00030519519350491464 -0.7071372866630554
vn -0.5773298740386963 0.5775130391120911 -0.5772078037261963
vn 0.0 0.7072898745536804 -0.7069236636161804
vn 0.0 0.0003357035748194903 0.9999998807907104
vn 0.0 0.0003357035748194903 0.9999998807907104
vn 0.0 0.7073355913162231 0.7068778276443481
vn 0.0 0.7073202729225159 0.7068930864334106
vn 1.0 0.00015259253268595785 -0.0
vn 0.7070915102958679 0.00036622636253014207 -0.7071220874786377
vn 0.5772688388824463 0.5776045918464661 -0.5771773457527161
vn 0.7070000171661377 0.7072135806083679 -0.0
vn -1.0 0.00015259253268595785 0.0
vn -1.0 0.00015259253268595785 0.0
vn -0.7070000171661377 0.7072135806083679 0.0
vn -0.7070000171661377 0.7072135806083679 0.0
vn 0.0 0.0003357035748194903 -0.9999998807907104
vn 0.0 0.0003357035748194903 -0.9999998807907104
vn 0.0 0.7073202729225159 -0.7068930864334106
vn 0.0 0.7073355913162231 -0.7068778276443481
vn 0.7070915102958679 0.00036622636253014207 -0.7071220874786377
vn 0.5772688388824463 0.5776045918464661 -0.5771773457527161
vn 1.0 0.00015259253268595785 -0.0
vn 1.0 0.00015259253268595785 -0.0
vn 0.7070000171661377 0.7072135806083679 -0.0
vn 0.7070000171661377 0.7072135806083679 -0.0
vn -1.0 0.00015259253268595785 0.0
vn -1.0 0.00015259253268595785 0.0
vn -0.7070000171661377 0.7072135806083679 0.0
vn -0.7070000171661377 0.7072135806083679 0.0
vn 0.0 0.00030518503626808524 0.9999998807907104
vn 0.0 0.0003357035748194903 0.9999998807907104
vn 0.0 0.7073202729225159 0.7068930864334106
vn 0.0 0.7072898745536804 0.7069236636161804
vn 1.0 0.00015259253268595785 -0.0
vn 0.7070000171661377 0.7072135806083679 -0.0
vn 0.0 0.0003357035748194903 -0.9999998807907104
vn 0.0 0.7073202729225159 -0.7068930864334106
vn -0.7070915102958679 0.0003051886160392314 0.7071220874786377
vn -0.5773298740386963 0.5775130391120911 0.5772078037261963
vn 0.7070915102958679 0.00036622636253014207 0.7071220874786377
vn 0.5772688388824463 0.5776045918464661 0.5771773457527161
vn -0.7070762515068054 0.00030519519350491464 -0.7071372866630554
vn -0.5773298740386963 0.5775130391120911 -0.5772078037261963
vn 0.7070915102958679 0.00036622636253014207 0.7071220874786377
vn 0.5772688388824463 0.5776045918464661 0.5771773457527161
vn -0.7070915102958679 0.0003051886160392314 0.7071220874786377
vn -0.5773298740386963 0.5775130391120911 0.5772078037261963
vn 0.0 -0.7072898745536804 -0.7069236636161804
vn -0.5773298740386963 -0.5775130391120911 -0.5772078037261963
vn -0.7070915102958679 -0.0003051886160392314 -0.7071220874786377
vn 0.0 -0.00030518503626808524 -0.9999998807907104
vn 0.0 6.103701889514923e-05 -1.0
vn -0.7071068286895752 6.103904888732359e-05 -0.7071068286895752
vn 0.0 -0.7073202729225159 0.7068930864334106
vn 0.0 -0.7073355913162231 0.7068778276443481
vn 0.0 -0.0003357035748194903 0.9999998807907104
vn 0.0 -0.0003357035748194903 0.9999998807907104
vn 0.0 3.0518509447574615e-05 1.0
vn 0.0 3.0518509447574615e-05 1.0
vn 0.7070000171661377 -0.7072135806083679 0.0
vn 0.5772688388824463 -0.5776045918464661 -0.5771773457527161
vn 0.7070915102958679 -0.00036622636253014207 -0.7071220874786377
vn 1.0 -0.00015259253268595785 0.0
vn 1.0 0.0 -0.0
vn 0.7071068286895752 3.0519524443661794e-05 -0.7071068286895752
vn -0.7070000171661377 -0.7072135806083679 0.0
vn -0.7070000171661377 -0.7072135806083679 0.0
vn -1.0 -0.00015259253268595785 0.0
vn -1.0 -0.00015259253268595785 0.0
vn -1.0 0.0 0.0
vn -1.0 0.0 0.0
vn 0.0 -0.7073355913162231 -0.7068778276443481
vn 0.0 -0.7073202729225159 -0.7068930864334106
vn 0.0 -0.0003357035748194903 -0.9999998807907104
vn 0.0 -0.000335713877575472 -1.0
vn 0.0 3.0518509447574615e-05 -1.0
vn 0.0 3.0518509447574615e-05 -1.0
vn 0.5772688388824463 -0.5776045918464661 -0.5771773457527161
vn 0.7070915102958679 -0.00036622636253014207 -0.7071220874786377
vn 0.7071068286895752 3.0519524443661794e-05 -0.7071068286895752
vn 0.7070000171661377 -0.7072135806083679 0.0
vn 0.7070000171661377 -0.7072135806083679 0.0
vn 1.0 -0.00015259253268595785 0.0
vn 1.0 -0.00015259253268595785 0.0
vn 1.0 0.0 -0.0
vn 1.0 0.0 -0.0
vn -0.7070000171661377 -0.7072135806083679 0.0
vn -0.7070000171661377 -0.7072135806083679 0.0
vn -1.0 -0.00015259253268595785 0.0
vn -1.0 -0.00015259253268595785 0.0
vn -1.0 0.0 0.0
vn -1.0 0.0 0.0
vn 0.0 -0.7072898745536804 0.7069236636161804
vn 0.0 -0.7073202729225159 0.7068930864334106
vn 0.0 -0.0003357035748194903 0.9999998807907104
vn 0.0 -0.00030518503626808524 0.9999998807907104
vn 0.0 6.103701889514923e-05 1.0
vn 0.0 3.0518509447574615e-05 1.0
vn 0.7070000171661377 -0.7072135806083679 0.0
vn 1.0 -0.00015259253268595785 0.0
vn 1.0 0.0 -0.0
vn 0.0 -0.7073202729225159 -0.7068930864334106
vn 0.0 -0.0003357035748194903 -0.9999998807907104
vn 0.0 3.0518509447574615e-05 -1.0
vn -0.5773298740386963 -0.5775130391120911 0.5772078037261963
vn -0.7070915102958679 -0.0003051886160392314 0.7071220874786377
vn -0.7071068286895752 6.103904888732359e-05 0.7071068286895752
vn 0.5772688388824463 -0.5776045918464661 0.5771773457527161
vn 0.7070915102958679 -0.00036622636253014207 0.7071220874786377
vn 0.7071068286895752 3.0519524443661794e-05 0.7071068286895752
vn -0.5773298740386963 -0.5775130391120911 -0.5772078037261963
vn -0.7070915102958679 -0.0003051886160392314 -0.7071220874786377
vn -0.7071068286895752 6.103904888732359e-05 -0.7071068286895752
vn 0.5772688388824463 -0.5776045918464661 0.5771773457527161
vn 0.7070915102958679 -0.00036622636253014207 0.7071220874786377
vn 0.7071068286895752 3.0519524443661794e-05 0.7071068286895752
vn -0.5773298740386963 -0.5775130391120911 0.5772078037261963
vn -0.7070915102958679 -0.0003051886160392314 0.7071220874786377
vn -0.7071068286895752 6.103904888732359e-05 0.7071068286895752
vn -0.7071068286895752 -6.103904888732359e-05 -0.7071068286895752
vn 0.0 -6.103701889514923e-05 -1.0
vn 0.0 -3.0518509447574615e-05 1.0
vn 0.0 -3.0518509447574615e-05 1.0
vn 0.7071068286895752 -3.0519524443661794e-05 -0.7071068286895752
vn 1.0 0.0 -0.0
vn -1.0 0.0 0.0
vn -1.0 0.0 0.0
vn 0.0 -3.0518509447574615e-05 -1.0
vn 0.0 -3.0518509447574615e-05 -1.0
vn 0.7071068286895752 -3.0519524443661794e-05 -0.7071068286895752
vn 1.0 0.0 -0.0
vn 1.0 0.0 -0.0
vn -1.0 0.0 0.0
vn -1.0 0.0 0.0
vn 0.0 -3.0518509447574615e-05 1.0
vn 0.0 -6.103701889514923e-05 1.0
vn 1.0 0.0 -0.0
vn 0.0 -3.0518509447574615e-05 -1.0
vn -0.7071068286895752 -6.103904888732359e-05 0.7071068286895752
vn 0.7071068286895752 -3.0519524443661794e-05 0.7071068286895752
vn -0.7071068286895752 -6.103904888732359e-05 -0.7071068286895752
vn 0.7071068286895752 -3.0519524443661794e-05 0.7071068286895752
vn -0.7071068286895752 -6.103904888732359e-05 0.7071068286895752
f 1/1/1 2/2/2 3/3/3
f 1/1/1 3/3/3 4/4/4
f 5/5/5 6/6/6 7/7/7
f 5/5/5 7/7/7 8/8/8
f 9/9/9 10/10/10 2/2/2
f 9/9/9 2/2/2 1/1/1
f 11/11/11 12/12/12 13/13/13
f 11/11/11 13/13/13 14/14/14
f 15/15/15 1/1/1 4/4/4
f 15/15/15 4/4/4 16/16/16
f 17/17/17 18/18/18 19/19/19
f 17/17/17 19/19/19 20/20/20
f 21/21/21 5/5/5 8/8/8
f 21/21/21 8/8/8 22/22/22
f 23/23/23 24/24/24 12/12/12
f 23/23/23 12/12/12 11/11/11
f 25/25/25 9/9/9 1/1/1
f 25/25/25 1/1/1 15/15/15
f 8/8/8 7/7/7 26/26/26
f 8/8/8 26/26/26 27/27/27
f 27/27/27 26/26/26 10/10/10
f 27/27/27 10/10/10 9/9/9
f 20/20/20 19/19/19 28/28/28
f 20/20/20 28/28/28 29/29/29
f 29/29/29 28/28/28 24/24/24
f 29/29/29 24/24/24 23/23/23
f 22/22/22 8/8/8 27/27/27
f 22/22/22 27/27/27 30/30/30
f 30/30/30 27/27/27 9/9/9
f 30/30/30 9/9/9 25/25/25
f 12/12/12 31/31/31 32/32/32
f 12/12/12 32/32/32 13/13/13
f 31/31/31 15/15/15 16/16/16
f 31/31/31 16/16/16 32/32/32
f 18/18/18 33/33/33 34/34/34
f 18/18/18 34/34/34 19/19/19
f 33/33/33 21/21/21 22/22/22
f 33/33/33 22/22/22 34/34/34
f 24/24/24 35/35/35 31/31/31
f 24/24/24 31/31/31 12/12/12
f 35/35/35 25/25/25 15/15/15
f 35/35/35 15/15/15 31/31/31
f 19/19/19 34/34/34 36/36/36
f 19/19/19 36/36/36 28/28/28
f 34/34/34 22/22/22 30/30/30
f 34/34/34 30/30/30 36/36/36
f 28/28/28 36/36/36 35/35/35
f 28/28/28 35/35/35 24/24/24
f 36/36/36 30/30/30 25/25/25
f 36/36/36 25/25/25 35/35/35
f 37/37/37 38/38/38 39/39/39
f 37/37/37 39/39/39 40/40/40
f 41/41/41 42/42/42 43/43/43
f 41/41/41 43/43/43 44/44/44
f 45/45/45 37/37/37 40/40/40
f 45/45/45 40/40/40 46/46/46
f 47/47/47 48/48/48 49/49/49
f 47/47/47 49/49/49 50/50/50
f 51/51/51 52/52/52 38/38/38
f 51/51/51 38/38/38 37/37/37
f 53/53/53 54/54/54 55/55/55
f 53/53/53 55/55/55 56/56/56
f 57/57/57 58/58/58 42/42/42
f 57/57/57 42/42/42 41/41/41
f 59/59/59 47/47/47 50/50/50
f 59/59/59 50/50/50 60/60/60
f 61/61/61 51/51/51 37/37/37
f 61/61/61 37/37/37 45/45/45
f 42/42/42 62/62/62 63/63/63
f 42/42/42 63/63/63 43/43/43
f 62/62/62 45/45/45 46/46/46
f 62/62/62 46/46/46 63/63/63
f 54/54/54 64/64/64 65/65/65
f 54/54/54 65/65/65 55/55/55
f 64/64/64 59/59/59 60/60/60
f 64/64/64 60/60/60 65/65/65
f 58/58/58 66/66/66 62/62/62
f 58/58/58 62/62/62 42/42/42
f 66/66/66 61/61/61 45/45/45
f 66/66/66 45/45/45 62/62/62
f 50/50/50 49/49/49 67/67/67
f 50/50/50 67/67/67 68/68/68
f 68/68/68 67/67/67 52/52/52
f 68/68/68 52/52/52 51/51/51
f 56/56/56 55/55/55 69/69/69
f 56/56/56 69/69/69 70/70/70
f 70/70/70 69/69/69 58/58/58
f 70/70/70 58/58/58 57/57/57
f 60/60/60 50/50/50 68/68/68
f 60/60/60 68/68/68 71/71/71
f 71/71/71 68/68/68 51/51/51
f 71/71/71 51/51/51 61/61/61
f 55/55/55 65/65/65 72/72/72
f 55/55/55 72/72/72 69/69/69
f 69/69/69 72/72/72 66/66/66
f 69/69/69 66/66/66 58/58/58
f 65/65/65 60/60/60 71/71/71
f 65/65/65 71/71/71 72/72/72
f 72/72/72 71/71/71 61/61/61
f 72/72/72 61/61/61 66/66/66
f 73/73/73 74/74/74 75/75/75
f 73/73/73 75/75/75 76/76/76
f 77/77/77 78/78/78 79/79/79
f 77/77/77 79/79/79 80/80/80
f 81/81/81 82/82/82 83/83/83
f 81/81/81 83/83/83 84/84/84
f 85/85/85 86/86/86 87/87/87
f 85/85/85 87/87/87 88/88/88
f 89/89/89 90/90/90 91/91/91
f 89/89/89 91/91/91 92/92/92
f 93/93/93 89/89/89 92/92/92
f 93/93/93 92/92/92 94/94/94
f 95/95/95 96/96/96 97/97/97
f 95/95/95 97/97/97 98/98/98
f 99/99/99 100/100/100 101/101/101
f 99/99/99 101/101/101 102/102/102
f 103/103/103 104/104/104 105/105/105
f 103/103/103 105/105/105 106/106/106
f 107/107/107 81/81/81 84/84/84
f 107/107/107 84/84/84 108/108/108
f 109/109/109 73/73/73 76/76/76
f 109/109/109 76/76/76 110/110/110
f 104/104/104 77/77/77 80/80/80
f 104/104/104 80/80/80 105/105/105
f 100/100/100 111/111/111 112/112/112
f 100/100/100 112/112/112 101/101/101
f 90/90/90 109/109/109 110/110/110
f 90/90/90 110/110/110 91/91/91
f 78/78/78 113/113/113 114/114/114
f 78/78/78 114/114/114 79/79/79
f 115/115/115 85/85/85 88/88/88
f 115/115/115 88/88/88 116/116/116
f 117/117/117 95/95/95 98/98/98
f 117/117/117 98/98/98 118/118/118
f 86/86/86 99/99/99 102/102/102
f 86/86/86 102/102/102 87/87/87
f 96/96/96 107/107/107 108/108/108
f 96/96/96 108/108/108 97/97/97
f 119/119/119 103/103/103 106/106/106
f 119/119/119 106/106/106 120/120/120
f 121/121/121 122/122/122 123/123/123
f 121/121/121 123/123/123 124/124/124
f 125/125/125 126/126/126 74/74/74
f 125/125/125 74/74/74 73/73/73
f 127/127/127 128/128/128 129/129/129
f 127/127/127 129/129/129 130/130/130
f 131/131/131 132/132/132 78/78/78
f 131/131/131 78/78/78 77/77/77
f 133/133/133 134/134/134 135/135/135
f 133/133/133 135/135/135 136/136/136
f 137/137/137 138/138/138 82/82/82
f 137/137/137 82/82/82 81/81/81
f 139/139/139 140/140/140 141/141/141
f 139/139/139 141/141/141 142/142/142
f 143/143/143 144/144/144 86/86/86
f 143/143/143 86/86/86 85/85/85
f 145/145/145 146/146/146 147/147/147
f 145/145/145 147/147/147 148/148/148
f 149/149/149 150/150/150 90/90/90
f 149/149/149 90/90/90 89/89/89
f 151/151/151 145/145/145 148/148/148
f 151/151/151 148/148/148 152/152/152
f 153/153/153 149/149/149 89/89/89
f 153/153/153 89/89/89 93/93/93
f 154/154/154 155/155/155 156/156/156
f 154/154/154 156/156/156 157/157/157
f 158/158/158 159/159/159 96/96/96
f 158/158/158 96/96/96 95/95/95
f 160/160/160 161/161/161 162/162/162
f 160/160/160 162/162/162 163/163/163
f 164/164/164 165/165/165 100/100/100
f 164/164/164 100/100/100 99/99/99
f 166/166/166 167/167/167 168/168/168
f 166/166/166 168/168/168 169/169/169
f 170/170/170 171/171/171 104/104/104
f 170/170/170 104/104/104 103/103/103
f 172/172/172 133/133/133 136/136/136
f 172/172/172 136/136/136 173/173/173
f 174/174/174 137/137/137 81/81/81
f 174/174/174 81/81/81 107/107/107
f 175/175/175 121/121/121 124/124/124
f 175/175/175 124/124/124 176/176/176
f 177/177/177 125/125/125 73/73/73
f 177/177/177 73/73/73 109/109/109
f 167/167/167 127/127/127 130/130/130
f 167/167/167 130/130/130 168/168/168
f 171/171/171 131/131/131 77/77/77
f 171/171/171 77/77/77 104/104/104
f 161/161/161 178/178/178 179/179/179
f 161/161/161 179/179/179 162/162/162
f 165/165/165 180/180/180 111/111/111
f 165/165/165 111/111/111 100/100/100
f 146/146/146 175/175/175 176/176/176
f 146/146/146 176/176/176 147/147/147
f 150/150/150 177/177/177 109/109/109
f 150/150/150 109/109/109 90/90/90
f 128/128/128 181/181/181 182/182/182
f 128/128/128 182/182/182 129/129/129
f 132/132/132 183/183/183 113/113/113
f 132/132/132 113/113/113 78/78/78
f 184/184/184 139/139/139 142/142/142
f 184/184/184 142/142/142 185/185/185
f 186/186/186 143/143/143 85/85/85
f 186/186/186 85/85/85 115/115/115
f 187/187/187 154/154/154 157/157/157
f 187/187/187 157/157/157 188/188/188
f 189/189/189 158/158/158 95/95/95
f 189/189/189 95/95/95 117/117/117
f 140/140/140 160/160/160 163/163/163
f 140/140/140 163/163/163 141/141/141
f 144/144/144 164/164/164 99/99/99
f 144/144/144 99/99/99 86/86/86
f 155/155/155 172/172/172 173/173/173
f 155/155/155 173/173/173 156/156/156
f 159/159/159 174/174/174 107/107/107
f 159/159/159 107/107/107 96/96/96
f 190/190/190 166/166/166 169/169/169
f 190/190/190 169/169/169 191/191/191
f 192/192/192 170/170/170 103/103/103
f 192/192/192 103/103/103 119/119/119
f 124/124/124 123/123/123 193/193/193
f 124/124/124 193/193/193 194/194/194
f 194/194/194 193/193/193 126/126/126
f 194/194/194 126/126/126 125/125/125
f 130/130/130 129/129/129 195/195/195
f 130/130/130 195/195/195 196/196/196
f 196/196/196 195/195/195 132/132/132
f 196/196/196 132/132/132 131/131/131
f 136/136/136 135/135/135 197/197/197
f 136/136/136 197/197/197 198/198/198
f 198/198/198 197/197/197 138/138/138
f 198/198/198 138/138/138 137/137/137
f 142/142/142 141/141/141 199/199/199
f 142/142/142 199/199/199 200/200/200
f 200/200/200 199/199/199 144/144/144
f 200/200/200 144/144/144 143/143/143
f 148/148/148 147/147/147 201/201/201
f 148/148/148 201/201/201 202/202/202
f 202/202/202 201/201/201 150/150/150
f 202/202/202 150/150/150 149/149/149
f 152/152/152 148/148/148 202/202/202
f 152/152/152 202/202/202 203/203/203
f 203/203/203 202/202/202 149/149/149
f 203/203/203 149/149/149 153/153/153
f 157/157/157 156/156/156 204/204/204
f 157/157/157 204/204/204 205/205/205
f 205/205/205 204/204/204 159/159/159
f 205/205/205 159/159/159 158/158/158
f 163/163/163 162/162/162 206/206/206
f 163/163/163 206/206/206 207/207/207
f 207/207/207 206/206/206 165/165/165
f 207/207/207 165/165/165 164/164/164
f 169/169/169 168/168/168 208/208/208
f 169/169/169 208/208/208 209/209/209
f 209/209/209 208/208/208 171/171/171
f 209/209/209 171/171/171 170/170/170
f 173/173/173 136/136/136 198/198/198
f 173/173/173 198/198/198 210/210/210
f 210/210/210 198/198/198 137/137/137
f 210/210/210 137/137/137 174/174/174
f 176/176/176 124/124/124 194/194/194
f 176/176/176 194/194/194 211/211/211
f 211/211/211 194/194/194 125/125/125
f 211/211/211 125/125/125 177/177/177
f 168/168/168 130/130/130 196/196/196
f 168/168/168 196/196/196 208/208/208
f 208/208/208 196/196/196 131/131/131
f 208/208/208 131/131/131 171/171/171
f 162/162/162 179/179/179 212/212/212
f 162/162/162 212/212/212 206/206/206
f 206/206/206 212/212/212 180/180/180
f 206/206/206 180/180/180 165/165/165
f 147/147/147 176/176/176 211/211/211
f 147/147/147 211/211/211 201/201/201
f 201/201/201 211/211/211 177/177/177
f 201/201/201 177/177/177 150/150/150
f 129/129/129 182/182/182 213/213/213
f 129/129/129 213/213/213 195/195/195
f 195/195/195 213/213/213 183/183/183
f 195/195/195 183/183/183 132/132/132
f 185/185/185 142/142/142 200/200/200
f 185/185/185 200/200/200 214/214/214
f 214/214/214 200/200/200 143/143/143
f 214/214/214 143/143/143 186/186/186
f 188/188/188 157/157/157 205/205/205
f 188/188/188 205/205/205 215/215/215
f 215/215/215 205/205/205 158/158/158
f 215/215/215 158/158/158 189/189/189
f 141/141/141 163/163/163 207/207/207
f 141/141/141 207/207/207 199/199/199
f 199/199/199 207/207/207 164/164/164
f 199/199/199 164/164/164 144/144/144
f 156/156/156 173/173/173 210/210/210
f 156/156/156 210/210/210 204/204/204
f 204/204/204 210/210/210 174/174/174
f 204/204/204 174/174/174 159/159/159
f 191/191/191 169/169/169 209/209/209
f 191/191/191 209/209/209 216/216/216
f 216/216/216 209/209/209 170/170/170
f 216/216/216 170/170/170 192/192/192
